<svg width="40" height="30" viewBox="0 0 40 30" fill="none" xmlns="http://www.w3.org/2000/svg">
<path d="M19.6404 29.5C11.0166 29.5 3.59875 23.5274 0.530701 15C3.59875 6.47264 11.0166 0.5 19.6404 0.5C28.2641 0.5 35.682 6.47264 38.75 15C35.682 23.5274 28.2641 29.5 19.6404 29.5ZM10.2129 15C10.2129 20.7413 14.3845 25.5 19.6404 25.5C24.8963 25.5 29.0678 20.7413 29.0678 15C29.0678 9.25871 24.8963 4.5 19.6404 4.5C14.3845 4.5 10.2129 9.25871 10.2129 15ZM14.7839 15C14.7839 11.9013 17.0044 9.5 19.6404 9.5C22.2763 9.5 24.4968 11.9013 24.4968 15C24.4968 18.0987 22.2763 20.5 19.6404 20.5C17.0044 20.5 14.7839 18.0987 14.7839 15Z" fill="black" stroke="black"/>
</svg>
